<?xml version="1.0" standalone="no"?>
<!DOCTYPE svg PUBLIC "-//W3C//DTD SVG 20010904//EN"
 "http://www.w3.org/TR/2001/REC-SVG-20010904/DTD/svg10.dtd">
<svg version="1.0" xmlns="http://www.w3.org/2000/svg"
 width="512.000000pt" height="512.000000pt" viewBox="0 0 512.000000 512.000000"
 preserveAspectRatio="xMidYMid meet">

<g transform="translate(0.000000,512.000000) scale(0.100000,-0.100000)"
fill="#000000" stroke="none">
<path d="M2992 4899 c-297 -36 -588 -260 -733 -565 -52 -108 -71 -197 -72
-319 0 -168 57 -347 158 -500 l38 -56 -33 -70 c-25 -55 -51 -148 -70 -249 0
-3 -14 36 -31 85 -38 114 -104 239 -170 321 -57 72 -57 76 -11 187 45 109 31
232 -39 341 -16 26 -33 64 -38 84 l-8 37 -61 -62 c-52 -52 -64 -71 -83 -133
-42 -140 -10 -252 99 -351 48 -44 70 -75 115 -164 98 -198 167 -376 202 -525
20 -90 19 -102 -8 -54 -88 153 -192 266 -332 359 -164 109 -277 231 -374 404
-60 106 -60 102 27 286 l57 120 0 125 c0 140 -10 179 -77 313 -22 44 -42 101
-45 127 l-6 49 -41 -21 c-61 -31 -167 -143 -199 -211 -43 -89 -57 -143 -64
-243 -5 -76 -2 -103 15 -161 28 -89 82 -173 165 -250 46 -43 76 -82 101 -130
86 -172 231 -353 352 -439 173 -124 357 -386 544 -776 89 -187 119 -328 141
-668 15 -247 13 -257 -35 -140 -202 496 -507 841 -853 963 -77 28 -215 57
-268 57 -30 0 -38 7 -80 70 -119 179 -297 270 -529 270 -173 0 -303 -41 -413
-129 -59 -46 -65 -61 -28 -61 37 0 84 -22 168 -79 191 -131 381 -168 607 -121
139 29 252 26 360 -12 452 -158 823 -573 1039 -1165 43 -117 45 -139 35 -267
l-7 -76 -32 47 c-66 98 -167 172 -284 210 -25 8 -100 16 -166 19 l-120 4 60
-14 c214 -49 369 -173 467 -374 39 -79 51 -116 55 -165 4 -56 -30 -456 -43
-499 -5 -17 -43 -18 -615 -18 l-609 0 0 -50 0 -50 1398 2 1397 3 3 47 3 48
-556 0 -556 0 6 248 c3 136 2 312 -3 392 l-10 145 45 90 c25 50 68 128 95 174
42 69 58 87 93 102 116 51 272 69 446 49 126 -13 144 -20 240 -91 156 -115
307 -144 494 -94 36 9 75 13 98 9 37 -6 37 -5 28 20 -31 80 -120 178 -213 234
-98 58 -162 77 -268 76 -106 0 -152 -15 -243 -80 l-50 -36 -80 12 c-118 19
-254 8 -360 -27 -57 -19 -86 -25 -83 -17 15 40 226 311 319 410 68 73 122 98
297 138 63 15 153 36 200 46 261 60 521 270 665 539 57 105 130 193 183 220
l37 19 -40 17 c-145 61 -376 76 -554 36 -52 -11 -143 -41 -202 -65 -371 -150
-575 -420 -596 -786 l-6 -105 -118 -113 c-174 -166 -287 -314 -393 -513 -38
-70 -45 -79 -49 -58 -3 13 -15 85 -26 159 -23 148 -67 336 -104 445 l-24 70
107 102 c179 171 328 357 425 528 48 86 121 167 174 195 l34 17 -39 23 c-22
13 -40 24 -41 25 -1 0 6 30 17 64 10 35 24 97 31 138 12 73 13 74 53 95 69 34
160 104 213 161 212 232 203 618 -20 841 l-71 71 -8 -38 c-11 -53 -28 -83
-102 -176 -78 -98 -129 -197 -156 -305 -28 -110 -26 -186 10 -323 44 -171 44
-268 -2 -411 -29 -92 -30 -94 -56 -87 -103 27 -250 23 -357 -9 -129 -39 -222
-152 -249 -298 l-7 -37 33 10 c18 5 105 8 193 7 128 -1 169 1 205 15 24 9 46
14 48 12 6 -6 -84 -120 -151 -192 -106 -113 -330 -285 -347 -267 -4 5 -33 76
-65 158 l-58 148 6 122 c6 131 28 224 92 395 19 52 33 96 31 99 -14 13 -161
-280 -177 -355 -7 -29 -15 -56 -19 -58 -9 -6 -65 178 -87 281 -26 125 -23 341
6 484 32 156 60 192 284 379 133 110 209 218 271 383 48 126 59 208 60 433 1
200 2 212 24 253 13 24 22 45 20 46 -2 1 -31 -1 -66 -5z m-77 -91 c-123 -143
-265 -338 -248 -338 9 0 139 73 186 104 15 10 27 16 27 13 0 -8 -187 -132
-222 -147 -19 -9 -42 -43 -82 -120 -31 -59 -56 -111 -56 -115 0 -14 160 83
271 164 11 7 19 11 19 9 0 -10 -145 -125 -235 -187 -74 -51 -93 -69 -106 -104
-22 -55 -53 -196 -45 -204 12 -12 151 91 244 181 52 50 89 80 82 66 -23 -43
-172 -183 -257 -240 l-81 -55 -6 -60 c-4 -33 -7 -113 -8 -178 -1 -64 -5 -114
-9 -110 -16 19 -33 149 -34 268 -1 117 -3 136 -27 190 -33 76 -68 191 -67 219
0 11 15 -24 33 -79 18 -55 42 -120 53 -144 l19 -44 13 59 c8 32 27 96 43 142
l29 83 -17 104 c-13 79 -15 114 -7 147 11 43 11 43 12 -28 0 -39 8 -94 17
-124 l16 -53 49 94 c28 52 54 98 60 103 5 6 9 35 9 67 0 31 3 78 8 105 7 48 7
47 12 -34 l5 -82 67 88 c57 75 252 282 265 282 3 0 -12 -19 -32 -42z m-1480
-238 c-20 -57 -45 -165 -45 -193 1 -19 2 -20 13 -6 7 8 25 31 41 50 26 31 27
32 11 4 -10 -16 -30 -46 -45 -65 -23 -29 -29 -49 -35 -115 l-6 -80 31 35 c17
19 42 54 56 78 14 23 28 42 30 42 7 0 -35 -79 -77 -146 -38 -59 -38 -62 -29
-118 16 -101 18 -103 47 -61 14 21 40 70 59 109 18 39 33 66 34 59 0 -23 -40
-115 -77 -171 l-36 -57 22 -60 c32 -85 35 -95 23 -95 -11 0 -72 115 -72 135 0
6 -30 43 -66 80 -36 38 -70 78 -76 90 -6 11 20 -11 56 -50 57 -59 66 -66 61
-43 -3 15 -8 56 -11 90 -5 50 -15 75 -45 122 -22 32 -39 66 -39 75 0 9 14 -7
30 -36 16 -28 34 -54 38 -57 5 -3 12 25 16 63 4 50 2 78 -9 105 -20 47 -18 71
2 26 l16 -35 23 88 c23 87 63 191 70 184 3 -2 -3 -23 -11 -47z m2239 -501 c8
-41 16 -116 18 -166 2 -51 5 -93 8 -93 3 0 18 20 33 45 16 25 31 45 33 45 6 0
-25 -60 -49 -94 -18 -25 -51 -183 -41 -195 2 -2 29 23 61 55 45 47 53 52 38
25 -11 -18 -41 -52 -66 -75 -31 -28 -49 -54 -54 -76 -4 -19 -18 -62 -31 -94
-13 -33 -24 -61 -24 -63 0 -8 42 19 107 68 49 37 60 43 38 20 -16 -18 -60 -53
-98 -78 -40 -28 -79 -65 -97 -92 -16 -25 -45 -64 -64 -86 -49 -56 -47 -23 4
57 22 35 40 68 40 75 0 6 -13 52 -30 100 -16 49 -32 116 -35 149 -5 53 -2 47
24 -51 28 -109 49 -165 60 -165 6 0 43 81 62 137 9 27 6 44 -26 128 -19 53
-38 110 -41 128 -4 29 -3 29 11 -8 23 -60 67 -145 75 -145 4 0 13 36 19 80 12
79 12 81 -17 142 -42 89 -50 126 -11 50 27 -53 34 -60 42 -46 10 18 3 236 -10
284 -3 14 -3 22 1 19 3 -3 13 -39 20 -80z m-1729 -6 c-4 -27 -9 -57 -12 -68
-5 -18 -4 -19 13 -5 18 15 18 14 1 -12 -17 -28 -24 -108 -9 -108 5 0 17 16 27
35 29 53 30 33 1 -24 -29 -57 -31 -73 -12 -116 l14 -30 31 65 c17 36 29 54 26
40 -4 -14 -17 -47 -30 -75 l-24 -49 19 -43 c24 -55 11 -56 -20 0 -13 23 -44
62 -69 85 -33 31 -35 35 -8 13 21 -17 39 -31 41 -31 11 0 -26 116 -43 134 -12
12 -21 26 -21 30 0 5 9 -2 20 -15 l19 -24 1 48 c0 27 -5 58 -12 70 -10 20 -10
21 5 8 15 -12 17 -11 17 8 0 26 20 111 27 111 2 0 1 -21 -2 -47z m-1085 -1169
c27 -24 60 -41 111 -55 39 -11 80 -24 90 -30 33 -17 21 7 -31 64 -27 30 -50
58 -50 63 0 12 47 -36 91 -93 24 -30 63 -64 93 -81 58 -33 119 -82 112 -89 -3
-3 -39 14 -81 37 l-77 43 -79 -22 c-44 -12 -110 -24 -147 -26 l-67 -5 73 15
c40 7 98 21 130 30 55 17 56 17 32 30 -14 7 -50 21 -81 30 -56 18 -57 18 -150
-9 -116 -32 -148 -33 -54 0 38 13 73 28 78 33 4 4 -28 13 -74 19 -73 9 -87 8
-126 -9 -56 -24 -79 -24 -34 0 l34 18 -46 7 c-26 4 -91 5 -144 2 -69 -4 -86
-3 -58 4 22 4 91 12 153 16 l113 7 -28 18 c-40 27 -17 23 31 -5 28 -16 64 -25
116 -30 l75 -6 -45 41 c-25 22 -34 36 -22 29 13 -6 41 -27 62 -46z m3815 -16
c-93 -32 -290 -114 -355 -148 l-75 -39 100 -2 c88 -1 94 -3 50 -9 -27 -5 -82
-9 -121 -9 -66 -1 -75 -4 -155 -51 -46 -28 -95 -60 -109 -71 l-25 -20 140 5
c77 3 154 8 170 11 25 4 26 4 9 -4 -25 -11 -239 -47 -337 -57 l-68 -6 -97 -95
-97 -94 86 5 c48 3 138 19 200 35 163 43 169 44 119 20 -69 -32 -213 -68 -329
-81 l-104 -13 -85 -118 c-83 -116 -102 -137 -102 -119 0 31 102 213 150 267
10 11 21 43 25 70 10 76 42 197 65 246 11 24 18 35 15 24 -19 -61 -54 -206
-60 -245 l-7 -45 69 66 c37 36 92 85 121 108 28 24 52 48 52 54 0 24 90 194
115 217 23 21 21 16 -12 -37 -36 -56 -72 -147 -62 -158 3 -2 49 23 103 55 88
52 105 68 163 144 80 106 103 124 34 26 -28 -40 -51 -77 -51 -82 0 -5 13 -2
30 7 64 33 210 88 320 120 106 31 184 47 115 23z m-1644 -45 c-17 -21 -31 -40
-31 -44 0 -10 117 25 137 42 10 8 27 21 38 29 16 11 15 9 -4 -12 l-23 -27 78
4 c71 4 74 4 34 -6 -25 -5 -56 -12 -70 -16 l-25 -6 25 -8 c17 -6 10 -7 -22 -3
-44 5 -122 -10 -141 -27 -9 -7 76 -29 110 -29 9 0 13 -3 10 -6 -4 -4 -46 -1
-95 6 -88 12 -88 12 -142 -15 -66 -34 -58 -41 66 -53 88 -9 88 -9 24 -10 -36
0 -87 3 -115 8 -54 9 -48 11 -144 -66 -29 -24 -32 -24 -22 -6 6 11 33 42 61
69 27 26 50 52 50 56 0 15 52 118 57 114 2 -3 -3 -19 -11 -36 -9 -17 -21 -42
-26 -56 l-9 -24 67 32 c37 17 69 36 71 41 5 12 72 86 78 86 2 0 -9 -17 -26
-37z m1452 -140 c-7 -2 -19 -2 -25 0 -7 3 -2 5 12 5 14 0 19 -2 13 -5z m-533
-1067 c0 -3 -18 -15 -40 -27 -22 -13 -40 -27 -40 -31 0 -5 3 -7 8 -5 4 2 36 1
71 -3 46 -6 72 -4 97 6 18 8 39 14 46 13 7 0 -3 -8 -22 -16 l-35 -15 60 -19
c33 -10 76 -17 95 -15 19 2 27 1 18 -1 -30 -7 -20 -17 62 -56 43 -20 89 -46
101 -57 15 -13 -6 -6 -56 18 -44 22 -91 43 -105 47 -25 7 -25 7 5 -26 32 -35
10 -23 -40 22 -24 22 -115 59 -144 59 -3 0 17 -23 44 -52 51 -52 33 -43 -49
25 -38 33 -54 40 -106 44 -33 3 -60 2 -60 -3 0 -10 92 -84 128 -103 13 -7 21
-15 19 -18 -7 -6 -46 19 -120 76 -55 43 -60 44 -120 43 -73 -3 -60 14 20 25
29 4 68 20 98 39 48 31 65 39 65 30z"/>
<path d="M1830 4694 c6 -14 10 -44 10 -68 0 -96 33 -148 164 -262 l47 -41 16
30 c24 47 29 139 9 190 -31 83 -152 177 -228 177 -25 0 -27 -2 -18 -26z m106
-61 c12 -12 31 -36 40 -53 10 -16 22 -30 26 -30 4 0 8 -5 8 -10 0 -6 9 -30 20
-52 13 -28 20 -60 19 -97 l-1 -56 -10 45 c-8 39 -16 50 -54 74 -24 15 -44 30
-44 33 0 5 14 -3 53 -29 27 -19 27 -19 27 2 0 21 -25 51 -70 83 -23 16 -23 17
-2 6 13 -6 26 -8 29 -6 8 9 -28 57 -43 57 -7 0 -16 5 -20 12 -4 7 -3 8 4 4 22
-14 12 8 -20 43 -33 35 -6 17 38 -26z"/>
<path d="M3420 4497 c-220 -75 -344 -258 -310 -458 l12 -69 36 30 c21 16 66
41 102 56 36 14 82 35 103 46 94 48 178 157 222 287 14 43 35 87 45 96 11 10
17 22 14 26 -11 18 -157 9 -224 -14z m76 -59 c-68 -45 -76 -53 -56 -58 18 -4
14 -7 -21 -17 -28 -7 -57 -26 -79 -48 l-35 -37 35 7 c19 3 43 9 53 11 9 3 17
3 17 0 0 -2 -30 -14 -67 -26 -68 -22 -90 -40 -119 -93 -15 -28 -15 -28 13 -21
15 4 56 19 91 35 34 15 62 26 62 24 0 -9 -116 -63 -157 -74 -39 -11 -43 -15
-70 -83 -15 -40 -29 -65 -31 -56 -2 8 7 42 19 74 12 33 24 95 28 139 l5 80 6
-58 5 -59 35 49 c19 26 40 66 47 88 10 37 11 38 12 10 l1 -29 41 39 c22 22 47
54 55 70 10 22 13 24 10 7 -2 -12 -1 -20 2 -18 125 77 158 96 167 96 5 0 -26
-24 -69 -52z"/>
<path d="M3056 3825 c-11 -20 -52 -60 -92 -90 -95 -72 -146 -132 -196 -233
-41 -82 -42 -84 -48 -225 -5 -104 -11 -151 -24 -175 l-17 -33 28 7 c266 58
409 186 459 411 28 125 2 263 -63 341 l-28 33 -19 -36z m31 -123 c-4 -37 -13
-89 -21 -115 -8 -26 -11 -47 -8 -47 3 0 20 12 36 27 19 17 14 10 -10 -17 -38
-42 -92 -150 -75 -150 5 0 23 10 42 23 56 38 66 41 29 8 -19 -17 -47 -35 -62
-41 -26 -12 -127 -150 -108 -150 5 0 35 11 66 25 31 14 59 25 63 25 13 -1 -66
-40 -114 -56 -27 -9 -68 -33 -90 -54 -42 -39 -114 -90 -128 -90 -4 0 24 30 63
66 l70 67 -6 76 c-3 42 -1 94 4 116 9 35 10 26 11 -62 1 -57 5 -103 10 -103 6
0 27 24 49 54 37 53 38 56 31 113 -4 32 -7 76 -7 98 0 33 3 28 14 -29 8 -38
16 -71 19 -74 2 -3 16 21 31 52 24 53 25 61 15 118 -13 75 -8 86 9 21 l13 -48
18 55 c9 30 20 79 24 108 10 76 19 64 12 -16z"/>
<path d="M980 3645 c-65 -19 -142 -66 -170 -105 -25 -35 -25 -35 9 -37 16 -1
56 -13 89 -27 71 -30 171 -48 227 -40 22 3 76 18 120 34 44 16 93 31 109 35
l29 6 -44 45 c-66 68 -135 97 -233 101 -51 2 -101 -3 -136 -12z m231 -42 c13
-16 12 -17 -3 -4 -10 7 -18 15 -18 17 0 8 8 3 21 -13z m-103 -5 c15 -15 122
-28 122 -14 0 5 8 2 18 -7 10 -10 24 -17 31 -17 13 0 91 -38 91 -45 0 -2 -24
4 -54 15 l-54 18 -48 -24 c-27 -13 -56 -23 -64 -23 -8 0 6 9 33 21 26 11 47
24 47 28 0 4 -19 10 -42 12 -32 4 -56 -2 -93 -19 l-50 -25 30 27 30 26 -48 -5
c-26 -3 -59 -13 -75 -22 -26 -15 -26 -15 -7 1 19 17 19 17 -20 11 -96 -16
-102 -16 -60 -1 22 7 50 14 62 14 12 1 24 5 27 9 2 4 30 7 61 5 48 -1 55 0 44
13 -14 17 2 19 19 2z"/>
<path d="M4033 3345 c-158 -43 -259 -150 -287 -307 -4 -24 -3 -38 4 -38 5 0
10 7 10 16 0 8 25 42 56 74 31 32 69 86 84 119 16 34 31 61 34 61 3 0 -6 -23
-19 -52 -13 -29 -23 -53 -22 -54 6 -6 133 62 141 74 4 8 21 28 37 46 l30 31
-26 -39 c-14 -22 -24 -40 -22 -42 8 -8 116 32 147 55 29 21 32 22 17 4 l-19
-21 119 3 c104 3 109 3 45 -5 -41 -4 -90 -11 -110 -15 l-37 -8 40 -13 40 -13
-40 7 c-59 10 -116 6 -155 -10 l-35 -15 65 -16 c76 -18 49 -22 -50 -6 -67 10
-72 9 -120 -17 -29 -16 -47 -31 -42 -36 5 -5 53 -13 108 -17 l99 -8 -80 -1
c-44 -1 -99 3 -122 7 -42 8 -44 7 -99 -43 l-56 -51 183 0 c169 1 189 3 244 25
85 33 131 63 205 135 36 35 78 70 95 78 l29 15 -60 30 c-33 17 -88 38 -121 46
-75 20 -239 20 -310 1z"/>
<path d="M1195 3276 c-27 -7 -63 -18 -79 -25 l-28 -11 33 -23 c19 -12 49 -45
66 -72 55 -83 122 -143 208 -186 69 -34 94 -41 189 -50 59 -6 130 -16 157 -23
57 -15 56 -9 -8 62 l-38 43 -86 5 c-47 3 -98 9 -115 13 -18 6 10 7 75 3 116
-6 119 -2 49 49 -38 27 -48 29 -132 30 -91 2 -91 2 -28 9 34 4 65 9 67 12 13
12 -98 48 -152 49 -54 2 -55 2 -18 8 l40 7 -70 22 c-38 12 -86 26 -105 31 -20
5 -26 10 -15 10 20 1 163 -31 200 -45 20 -7 20 -7 1 14 -11 12 -17 25 -14 28
3 3 15 -8 27 -24 19 -28 117 -79 128 -68 3 3 -4 22 -17 42 -17 30 -18 35 -4
23 9 -8 26 -33 36 -56 10 -24 23 -43 27 -43 4 0 30 -16 56 -37 l48 -36 -6 40
c-4 23 -10 50 -13 60 -5 15 -4 15 5 3 6 -8 16 -40 22 -70 6 -31 23 -68 37 -85
14 -16 36 -52 48 -80 l24 -50 0 67 c0 222 -191 370 -474 367 -50 0 -113 -6
-141 -13z"/>
<path d="M1245 2256 c-38 -8 -96 -24 -128 -36 l-59 -22 29 -15 c42 -22 71 -52
108 -113 19 -31 60 -81 92 -111 110 -105 222 -153 394 -169 127 -12 202 -27
241 -46 15 -8 30 -14 34 -14 4 0 4 43 2 95 -5 84 -10 104 -42 170 -43 88 -109
151 -202 195 -136 66 -331 93 -469 66z m329 -160 c32 -14 61 -25 63 -23 2 2
-10 29 -26 61 -20 40 -23 52 -11 41 10 -9 29 -41 42 -70 15 -34 34 -60 53 -71
17 -9 49 -32 73 -51 41 -34 42 -34 42 -10 0 13 -7 47 -16 76 -8 29 -13 55 -10
58 6 6 32 -82 42 -142 4 -24 20 -55 40 -77 34 -38 57 -77 74 -125 9 -26 8 -26
-18 7 -15 19 -47 56 -71 82 l-44 48 -75 0 c-70 0 -208 18 -200 26 2 2 59 -2
126 -8 67 -7 125 -9 128 -5 4 3 -8 19 -26 34 -66 56 -82 63 -155 64 -38 1 -97
5 -130 9 l-60 7 85 2 c116 2 126 11 48 46 -54 24 -75 29 -148 28 -47 0 -69 1
-50 3 19 3 46 7 60 10 24 6 23 7 -15 21 -22 8 -80 25 -130 38 -63 17 -80 24
-55 24 19 0 85 -13 145 -28 61 -16 111 -27 113 -26 2 1 -9 18 -24 36 -21 26
-16 23 22 -12 27 -26 76 -58 108 -73z"/>
<path d="M1268 1724 c-145 -26 -259 -80 -354 -167 -53 -48 -114 -126 -114
-145 0 -5 11 -7 24 -5 34 7 120 -20 196 -61 120 -63 198 -81 350 -81 l135 0
120 46 c66 26 146 52 178 58 31 7 57 15 57 17 0 3 -37 23 -83 45 l-83 40 -85
-40 c-76 -37 -197 -76 -206 -67 -2 2 26 13 62 25 96 31 197 79 191 90 -6 10
-83 29 -131 33 -19 1 -66 -16 -125 -44 -121 -58 -166 -71 -75 -21 39 21 81 46
95 56 24 17 23 17 -69 17 -75 0 -98 -4 -119 -19 -32 -22 -112 -63 -112 -57 0
2 23 18 50 36 28 18 49 34 48 36 -7 6 -166 -18 -247 -37 -46 -10 -86 -18 -88
-16 -7 8 144 50 250 71 l109 22 -51 24 c-28 13 -49 25 -46 28 2 2 32 -9 67
-25 58 -26 70 -28 146 -23 l83 5 -33 31 c-18 18 -46 39 -63 47 -18 10 -23 16
-14 17 9 0 45 -21 79 -47 83 -63 75 -59 156 -72 39 -6 79 -13 89 -17 15 -6 16
-4 5 17 -7 13 -29 44 -49 69 -50 60 -61 81 -25 48 16 -15 47 -54 69 -86 30
-44 53 -67 93 -87 29 -16 74 -48 99 -73 44 -42 45 -43 39 -15 -17 69 -68 156
-123 212 -119 118 -277 155 -495 115z"/>
</g>
</svg>
